<svg width="79" height="73" viewBox="0 0 79 73" fill="none" xmlns="http://www.w3.org/2000/svg">
<path d="M36.191 5.60647C47.4552 14.7593 51.3544 8.70231 69.0152 13.1684C79.1071 15.7204 83.2388 43.1768 67.7621 49.0519C52.2854 54.9271 55.5855 57.6086 49.4002 64.6636C43.2149 71.7186 26.5268 75.8406 14.2338 63.4355C1.94073 51.0304 14.8007 47.2025 4.5753 24.177C-3.33489 6.36477 22.5847 -5.44957 36.191 5.60647Z" fill="#BCBEC8" fill-opacity="0.35"/>
<path d="M43.1504 63.0654C35.9806 59.924 31.354 60.8139 22.1456 60.7989C14.1877 60.786 6.03913 57.9337 2.93127 50.6076C-0.729571 41.9781 -1.57165 30.1658 3.97573 22.7035C6.06352 19.895 9.40996 18.4524 12.538 16.8834C19.1043 13.5896 17.0618 12.4752 21.9034 6.54052C26.2438 1.22024 40.0418 -2.53915 51.7053 2.09298C57.0285 4.20705 60.991 8.94439 62.601 14.4411C65.1941 23.2943 60.5945 26.2314 65.8796 37.9982C67.8309 42.3427 70.4581 46.8182 69.4889 51.4811C67.2309 62.3445 52.5152 67.1686 43.1504 63.0654Z" fill="#BCBEC8" fill-opacity="0.9"/>
<path d="M30.6143 31.9867V37.7914" stroke="#200E32" stroke-width="3" stroke-linecap="round" stroke-linejoin="round"/>
<path d="M33.5759 34.8898H27.6533" stroke="#200E32" stroke-width="3" stroke-linecap="round" stroke-linejoin="round"/>
<path d="M40.7176 32.1634H40.5518" stroke="#200E32" stroke-width="3" stroke-linecap="round" stroke-linejoin="round"/>
<path d="M43.5291 37.7047H43.3633" stroke="#200E32" stroke-width="3" stroke-linecap="round" stroke-linejoin="round"/>
<path d="M29.4119 16C29.4119 17.1477 30.3612 18.0782 31.5323 18.0782H33.1698C34.9765 18.0846 36.44 19.5189 36.4482 21.2896V22.336M42.3639 46.942C37.7058 47.0209 33.1332 47.0177 28.6378 46.942C23.6479 46.942 20 43.3829 20 38.4925V31.2857C20 26.3953 23.6479 22.8361 28.6378 22.8361C33.1578 22.7588 37.7338 22.7604 42.3639 22.8361C47.3537 22.8361 51 26.3969 51 31.2857V38.4925C51 43.3829 47.3537 46.942 42.3639 46.942Z" stroke="#200E32" stroke-width="3" stroke-linecap="round" stroke-linejoin="round"/>
</svg>
