<svg width="252" height="233" viewBox="0 0 252 233" fill="none" xmlns="http://www.w3.org/2000/svg">
<path d="M115.445 17.8842C151.376 47.0807 163.814 27.7596 220.15 42.0057C252.342 50.1463 265.521 137.729 216.153 156.47C166.784 175.211 177.311 183.764 157.58 206.269C137.85 228.774 84.6174 241.922 45.4041 202.352C6.19084 162.781 47.2124 150.57 14.5948 77.1218C-10.6377 20.3031 72.0423 -17.3832 115.445 17.8842Z" fill="#FFDD57" fill-opacity="0.35"/>
<path d="M137.644 201.171C108.784 188.526 92.842 196.357 44.1494 193.027C36.2099 192.484 28.2795 190.012 23.0241 184.036C-0.581234 157.195 -12.9851 92.7748 20.5204 63.9978C23.1752 61.7177 26.3492 60.0889 29.5572 58.6907C63.1712 44.0396 52.282 42.4212 69.8691 20.8634C85.8629 1.25873 142.116 -11.7016 181.625 15.5707C186.338 18.8245 190.022 23.4227 192.592 28.5414C216.432 76.0282 185.128 77.4777 217.261 135.281C219.575 139.444 221.603 143.86 222.197 148.586C227.912 194.014 171.692 216.089 137.644 201.171Z" fill="#FFDD57" fill-opacity="0.9"/>
<path d="M82.3924 135.172C73.0108 140.71 48.4129 152.02 63.3947 166.172C70.7132 173.085 78.8641 178.03 89.1118 178.03H147.587C157.835 178.03 165.986 173.085 173.304 166.172C188.286 152.02 163.688 140.71 154.306 135.172C132.307 122.183 104.392 122.183 82.3924 135.172Z" stroke="#141B34" stroke-width="4.5" stroke-linecap="round" stroke-linejoin="round"/>
<path d="M147.684 74.8533C147.684 91.6129 134.551 105.199 118.35 105.199C102.149 105.199 89.0156 91.6129 89.0156 74.8533C89.0156 58.0937 102.149 44.5073 118.35 44.5073C134.551 44.5073 147.684 58.0937 147.684 74.8533Z" stroke="#141B34" stroke-width="4.5"/>
</svg>
