<svg width="69" height="63" viewBox="0 0 69 63" fill="none" xmlns="http://www.w3.org/2000/svg">
<path d="M31.261 4.84286C40.9908 12.749 44.3589 7.51701 59.6141 11.3747C68.3313 13.5791 71.9002 37.2956 58.5317 42.3705C45.1631 47.4454 48.0137 49.7616 42.6709 55.8556C37.3281 61.9497 22.9132 65.5102 12.2946 54.7948C1.67603 44.0795 12.7843 40.773 3.95174 20.8838C-2.88098 5.49787 19.508 -4.70719 31.261 4.84286Z" fill="#FFDD57" fill-opacity="0.35"/>
<path d="M37.2728 54.4751C31.5221 51.9554 27.6655 52.4382 20.7758 52.5097C12.8183 52.5923 4.63774 49.6606 1.92898 42.1778C-0.61901 35.1391 -1.0123 26.2144 3.02092 20.1963C4.96917 17.2893 8.37632 15.8937 11.4684 14.2549C16.3719 11.656 14.903 10.5734 18.9199 5.64962C22.5327 1.22118 33.7314 -1.95528 43.5562 1.39978C48.9765 3.25073 53.0905 8.02836 54.3713 13.6109C55.8798 20.1864 52.782 22.9993 56.5175 31.9272C58.3557 36.3208 61.1373 40.8496 59.7854 45.4164C57.2061 54.1293 45.0843 57.8977 37.2728 54.4751Z" fill="#FFDD57" fill-opacity="0.9"/>
<path d="M22.3118 36.6033C19.7713 38.1031 13.1105 41.1656 17.1674 44.998C19.1492 46.8699 21.3563 48.2088 24.1313 48.2088H39.9658C42.7408 48.2088 44.948 46.8699 46.9297 44.998C50.9866 41.1656 44.3258 38.1031 41.7853 36.6033C35.8281 33.086 28.2691 33.086 22.3118 36.6033Z" stroke="#141B34" stroke-width="4.5" stroke-linecap="round" stroke-linejoin="round"/>
<path d="M39.9914 20.2696C39.9914 24.808 36.4351 28.487 32.048 28.487C27.6609 28.487 24.1045 24.808 24.1045 20.2696C24.1045 15.7313 27.6609 12.0522 32.048 12.0522C36.4351 12.0522 39.9914 15.7313 39.9914 20.2696Z" stroke="#141B34" stroke-width="4.5"/>
</svg>
