<svg width="65" height="60" viewBox="0 0 65 60" fill="none" xmlns="http://www.w3.org/2000/svg">
<path d="M29.7723 4.61216C39.0388 12.1418 42.2465 7.15898 56.7753 10.833C65.0774 12.9324 68.4763 35.5196 55.7444 40.3528C43.0125 45.186 45.7272 47.3919 40.6389 53.1958C35.5505 58.9996 21.822 62.3906 11.7091 52.1855C1.59616 41.9804 12.1754 38.8313 3.76349 19.8893C-2.74386 5.23598 18.579 -4.48313 29.7723 4.61216Z" fill="#A7C5FF" fill-opacity="0.35"/>
<path d="M35.4979 51.881C30.1836 49.5525 26.5678 49.9163 20.3633 50.0022C12.406 50.1123 4.21131 47.1577 1.64584 39.6246C-0.5786 33.0929 -0.85416 25.0157 2.73937 19.444C4.63612 16.5031 8.0696 15.126 11.1452 13.4565C15.5482 11.0664 14.2555 9.99366 18.0189 5.38053C21.4118 1.22162 31.8299 -1.77786 41.091 1.20335C46.5431 2.95841 50.7208 7.75457 51.8697 13.3658C53.0781 19.2675 50.4158 22.0177 53.6952 30.0893C55.4879 34.5016 58.3275 39.0576 56.8362 43.5807C54.1771 51.6455 42.839 55.0975 35.4979 51.881Z" fill="#A7C5FF" fill-opacity="0.9"/>
<path d="M30.4996 30.0638C35.7698 30.0638 40.0421 25.7915 40.0421 20.5213C40.0421 15.251 35.7698 10.9787 30.4996 10.9787C25.2294 10.9787 20.957 15.251 20.957 20.5213C20.957 25.7915 25.2294 30.0638 30.4996 30.0638Z" stroke="#231C1C" stroke-width="3" stroke-miterlimit="10"/>
<path d="M15.9785 39.1911C17.4508 36.4159 19.5677 34.1114 22.1167 32.5093C24.6656 30.9072 27.5568 30.0637 30.4999 30.0638C33.4429 30.0638 36.3341 30.9073 38.883 32.5095C41.432 34.1117 43.5489 36.4162 45.0211 39.1914" stroke="#231C1C" stroke-width="3" stroke-linecap="round" stroke-linejoin="round"/>
</svg>
